<svg xmlns="http://www.w3.org/2000/svg" viewBox="0 0 32 32" width="38" height="38"><defs><style>.a{fill:#edd87e;}.b{fill:#434854;}.c{fill:#eaeaea;}.d,.e{opacity:0.1;}</style></defs><g transform="translate(-448 -224)"><path class="a" d="M448,254a2,2,0,0,0,2,2h28c1.1,0,2-.9,2-3V234l-16,11-16-11Z"/><path class="b" d="M464,224l-16,10,16,11,16-11Z"/><path class="c" d="M476,236.75V226a2,2,0,0,0-2-2H454a2,2,0,0,0-2,2v10.75L464,245Z"/><path class="d" d="M448,234l16,9,16-9-16,11Z"/><g class="e"><path d="M464,245l15.263,10.539A1.988,1.988,0,0,0,480,254Z"/><path d="M448.737,255.539,464,245l-16,9A1.988,1.988,0,0,0,448.737,255.539Z"/></g><g class="e"><path d="M458,231h12a1,1,0,0,0,0-2H458a1,1,0,1,0,0,2Z"/><path d="M470,233H458a1,1,0,1,0,0,2h12a1,1,0,0,0,0-2Z"/><path d="M470,237H458a1,1,0,1,0,0,2h12a1,1,0,0,0,0-2Z"/></g></g></svg>