<svg xmlns="http://www.w3.org/2000/svg" viewBox="0 0 38.102 38.125" width="38" height="38"><defs><style>.a{fill:#eaca44;}.b{fill:#434854;}.c{fill:#469fcc;}.d{fill:#eaeaea;}.e{opacity:0.3;}.f{fill:#398868;}.g{opacity:0.1;}</style></defs><g transform="translate(-640 -608)"><circle class="a" cx="10.716" cy="10.716" r="10.716" transform="translate(648.335 624.67)"/><g transform="translate(640.533 618.492)"><path class="b" d="M658.966,622.989a10.692,10.692,0,0,1,8.343,4l10.175-10.175a1.158,1.158,0,0,1-.658.224h-13.1l-4.763,4.763-4.763-4.763h-13.1a1.161,1.161,0,0,1-.658-.224l10.175,10.175A10.7,10.7,0,0,1,658.966,622.989Z" transform="translate(-640.447 -616.812)"/></g><g transform="translate(640 608)"><path class="c" d="M678.1,611.572v-2.381A1.19,1.19,0,0,0,676.911,608H641.191A1.19,1.19,0,0,0,640,609.191v2.381Z" transform="translate(-640 -608)"/></g><rect class="d" width="38.102" height="3.572" transform="translate(640 611.572)"/><g class="e" transform="translate(640.533 618.492)"><path d="M654.2,617.036h-13.1a1.161,1.161,0,0,1-.658-.224l1.415,1.415h13.531Z" transform="translate(-640.447 -616.812)"/><path d="M660.191,617.036,659,618.227h13.531l1.415-1.415a1.159,1.159,0,0,1-.658.224Z" transform="translate(-636.909 -616.812)"/></g><path class="f" d="M640,614v2.381a1.19,1.19,0,0,0,1.191,1.191h35.721a1.19,1.19,0,0,0,1.191-1.191V614Z" transform="translate(0 1.144)"/><path class="g" d="M657.716,622.019a10.716,10.716,0,1,0,10.716,10.716A10.716,10.716,0,0,0,657.716,622.019Zm0,19.051a8.335,8.335,0,1,1,8.335-8.335A8.334,8.334,0,0,1,657.716,641.07Z" transform="translate(1.335 2.673)"/></g></svg>