<svg xmlns="http://www.w3.org/2000/svg" viewBox="0 0 56.778 56.778" width="50" height="50"><defs><style>.a{fill:#eaeaea;}.b,.e{opacity:0.1;}.c{fill:#434854;}.d{opacity:0.3;}</style></defs><g transform="translate(-320 -608)"><path class="a" d="M376.778,622.549A3.549,3.549,0,0,0,373.229,619H323.549A3.549,3.549,0,0,0,320,622.549v30.163a3.549,3.549,0,0,0,3.549,3.549h49.681a3.549,3.549,0,0,0,3.549-3.549Z" transform="translate(0 8.518)"/><path class="b" d="M373.229,640.538H323.549A3.549,3.549,0,0,1,320,636.989v1.774a3.549,3.549,0,0,0,3.549,3.549h49.681a3.549,3.549,0,0,0,3.549-3.549v-1.774A3.549,3.549,0,0,1,373.229,640.538Z" transform="translate(0 22.447)"/><path class="c" d="M350.969,608H347.42A12.42,12.42,0,0,0,335,620.42v7.1h3.549v-7.1a8.871,8.871,0,0,1,8.872-8.872h3.549a1.774,1.774,0,1,0,0-3.549Z" transform="translate(11.615 0)"/><rect class="d" width="3.549" height="1.774" transform="translate(346.615 625.743)"/><g class="e" transform="translate(327.097 634.595)"><path d="M329.323,622.989h-3.549A1.773,1.773,0,0,0,324,624.763v3.549a1.773,1.773,0,0,0,1.774,1.774h3.549a1.773,1.773,0,0,0,1.774-1.774v-3.549A1.774,1.774,0,0,0,329.323,622.989Z" transform="translate(-324 -622.989)"/><path d="M330.774,630.086h3.549a1.773,1.773,0,0,0,1.774-1.774v-3.549a1.773,1.773,0,0,0-1.774-1.774h-3.549A1.773,1.773,0,0,0,329,624.763v3.549A1.773,1.773,0,0,0,330.774,630.086Z" transform="translate(-320.128 -622.989)"/><path d="M335.774,630.086h3.549a1.773,1.773,0,0,0,1.774-1.774v-3.549a1.773,1.773,0,0,0-1.774-1.774h-3.549A1.773,1.773,0,0,0,334,624.763v3.549A1.773,1.773,0,0,0,335.774,630.086Z" transform="translate(-316.257 -622.989)"/><path d="M344.323,622.989h-3.549A1.773,1.773,0,0,0,339,624.763v3.549a1.773,1.773,0,0,0,1.774,1.774h3.549a1.773,1.773,0,0,0,1.774-1.774v-3.549A1.774,1.774,0,0,0,344.323,622.989Z" transform="translate(-312.385 -622.989)"/><path d="M329.323,627.989h-3.549A1.773,1.773,0,0,0,324,629.763v3.549a1.773,1.773,0,0,0,1.774,1.774h3.549a1.773,1.773,0,0,0,1.774-1.774v-3.549A1.774,1.774,0,0,0,329.323,627.989Z" transform="translate(-324 -619.117)"/><path d="M329.323,632.989h-3.549A1.773,1.773,0,0,0,324,634.763v3.549a1.773,1.773,0,0,0,1.774,1.774h3.549a1.773,1.773,0,0,0,1.774-1.774v-3.549A1.774,1.774,0,0,0,329.323,632.989Z" transform="translate(-324 -615.246)"/><path d="M330.774,635.086h3.549a1.773,1.773,0,0,0,1.774-1.774v-3.549a1.773,1.773,0,0,0-1.774-1.774h-3.549A1.773,1.773,0,0,0,329,629.763v3.549A1.773,1.773,0,0,0,330.774,635.086Z" transform="translate(-320.128 -619.117)"/><path d="M335.774,635.086h3.549a1.773,1.773,0,0,0,1.774-1.774v-3.549a1.773,1.773,0,0,0-1.774-1.774h-3.549A1.773,1.773,0,0,0,334,629.763v3.549A1.773,1.773,0,0,0,335.774,635.086Z" transform="translate(-316.257 -619.117)"/><path d="M344.323,627.989h-3.549A1.773,1.773,0,0,0,339,629.763v3.549a1.773,1.773,0,0,0,1.774,1.774h3.549a1.773,1.773,0,0,0,1.774-1.774v-3.549A1.774,1.774,0,0,0,344.323,627.989Z" transform="translate(-312.385 -619.117)"/><path d="M349.323,622.989h-3.549A1.773,1.773,0,0,0,344,624.763v3.549a1.773,1.773,0,0,0,1.774,1.774h3.549a1.773,1.773,0,0,0,1.774-1.774v-3.549A1.774,1.774,0,0,0,349.323,622.989Z" transform="translate(-308.514 -622.989)"/><path d="M352.066,632.989H330.774A1.773,1.773,0,0,0,329,634.763v3.549a1.773,1.773,0,0,0,1.774,1.774h21.292a1.773,1.773,0,0,0,1.774-1.774v-3.549A1.774,1.774,0,0,0,352.066,632.989Z" transform="translate(-320.128 -615.246)"/><path d="M349.323,627.989h-3.549A1.773,1.773,0,0,0,344,629.763v12.42a1.773,1.773,0,0,0,1.774,1.774h3.549a1.773,1.773,0,0,0,1.774-1.774v-12.42A1.774,1.774,0,0,0,349.323,627.989Z" transform="translate(-308.514 -619.117)"/></g></g></svg>