<svg xmlns="http://www.w3.org/2000/svg" xmlns:xlink="http://www.w3.org/1999/xlink" viewBox="0 0 70.488 41.641" fill="#ffffff" width="70" height="40"><defs><style>.a,.c{fill:#bffffff;}.a{stroke:#707070;opacity:0.31;}.b{clip-path:url(#a);}</style><clipPath id="a"><rect class="a" width="70.488" height="41.641" transform="translate(19 901)"/></clipPath></defs><g class="b" transform="translate(-19 -901)"><path class="c" d="M46.561,43.6,57.815,54.871a2.088,2.088,0,0,1-2.965,2.923L43.617,46.561a16.7,16.7,0,1,1,2.944-2.944Zm-13.2,2.3A12.528,12.528,0,1,0,20.837,33.365,12.528,12.528,0,0,0,33.365,45.893Zm2.088-14.616h4.176a2.088,2.088,0,0,1,0,4.176H35.453v4.176a2.088,2.088,0,0,1-4.176,0V35.453H27.1a2.088,2.088,0,1,1,0-4.176h4.176V27.1a2.088,2.088,0,1,1,4.176,0Z" transform="translate(16.757 884.334)"/></g></svg>