<svg xmlns="http://www.w3.org/2000/svg" viewBox="0 0 46 46" width="44" height="44">
  <defs>
    <style>
      .cls-1 {
        fill: none;
        stroke: #5d5d5d;
        stroke-width: 2px;
      }

      .cls-2 {
        fill: #5d5d5d;
      }
    </style>
  </defs>
  <g id="Group_804" data-name="Group 804" transform="translate(-271 -1242)">
    <path id="Oval_22_" class="cls-1" d="M22,0A22,22,0,1,1,0,22,22,22,0,0,1,22,0Z" transform="translate(272 1243)"/>
    <path id="Shape_22_" class="cls-2" d="M173.1,178.9c.3.2,1.1.7,2.5,1.6s2.5,1.6,3.2,2.1a2.186,2.186,0,0,0,.5.3,5.736,5.736,0,0,0,.7.4,2.092,2.092,0,0,1,.6.4c.2.1.5.2.7.3a1.268,1.268,0,0,0,.6.1h0a1.268,1.268,0,0,0,.6-.1c.2-.1.5-.2.7-.3a3.113,3.113,0,0,0,.6-.4,4.347,4.347,0,0,1,.7-.4c.3-.2.4-.3.5-.3.8-.5,2.7-1.7,5.7-3.7a6.73,6.73,0,0,0,1.5-1.4,2.716,2.716,0,0,0,.6-1.7,1.76,1.76,0,0,0-.6-1.3,1.741,1.741,0,0,0-1.4-.5H173a2.035,2.035,0,0,0-1.5.6,2.318,2.318,0,0,0,.2,3.1A5.263,5.263,0,0,0,173.1,178.9Zm18.7,1.2c-2.7,1.7-4.7,3-6.1,3.9a9.013,9.013,0,0,1-1.1.7,3.337,3.337,0,0,1-1.2.5,3.529,3.529,0,0,1-1.4.3h0a3.926,3.926,0,0,1-1.4-.3c-.5-.2-.9-.4-1.2-.5-.3-.2-.7-.4-1.1-.7-1.1-.7-3.1-2.1-6.1-3.9a4,4,0,0,1-1.2-1v9a1.76,1.76,0,0,0,.6,1.3,1.741,1.741,0,0,0,1.4.5h18a2.389,2.389,0,0,0,1.4-.5,1.76,1.76,0,0,0,.6-1.3v-9A5.3,5.3,0,0,1,191.8,180.1Z" transform="translate(112 1083)"/>
  </g>
</svg>
