<svg xmlns="http://www.w3.org/2000/svg" viewBox="0 0 36.64 36.636" width="38" height="38">
  <defs>
    <style>
      .cls-1 {
        fill: #cbcbcb;
      }

      .cls-2 {
        opacity: 0.1;
      }

      .cls-3 {
        fill: #363636;
      }
    </style>
  </defs>
  <g id="Group_685" data-name="Group 685" transform="translate(-639.991 -287.995)">
    <path id="Path_1670" data-name="Path 1670" class="cls-1" d="M661.746,310.558a1.692,1.692,0,0,1-.736.172,1.717,1.717,0,1,1,1.717-1.717,1.689,1.689,0,0,1-.172.736l12.774,12.774a5.511,5.511,0,0,0-.3-1.49l-6.582-21.749c-.34-1.127-1.341-2.289-2.289-2.289h-8.567l-8.6,8.6v8.567c0,.948,1.216,1.914,2.289,2.289l21.749,6.582a5.475,5.475,0,0,0,1.487.293Z" transform="translate(1.302 1.302)"/>
    <path id="Path_1671" data-name="Path 1671" class="cls-2" d="M659.767,296.994h-2.173l-8.6,8.6v2.173Z" transform="translate(1.302 1.302)"/>
    <path id="Path_1672" data-name="Path 1672" class="cls-3" d="M660.26,295.314l-1.619-1.619a1.142,1.142,0,0,0-1.619,0l-.809.809-6.006-6.006a1.717,1.717,0,0,0-2.428,0l-7.285,7.285a1.716,1.716,0,0,0,0,2.428l6.006,6.006-.809.809a1.143,1.143,0,0,0,0,1.619l1.619,1.619a1.145,1.145,0,0,0,1.619,0l11.33-11.331A1.142,1.142,0,0,0,660.26,295.314Z"/>
    <rect id="Rectangle_154" data-name="Rectangle 154" class="cls-2" width="1.504" height="13.736" transform="translate(646.503 304.216) rotate(-135.031)"/>
  </g>
</svg>
