<svg xmlns="http://www.w3.org/2000/svg" viewBox="0 0 39.778 39.778" width="38" height="38"><defs><style>.a{fill:#434854;}.b,.i{opacity:0.3;}.c{fill:#edd87e;}.d{fill:#eaeaea;}.e,.f{opacity:0.1;}.g{fill:#ef4d4d;}.h{opacity:0.15;}</style></defs><g transform="translate(-64 -288)"><path class="a" d="M98.563,301H92.347v1.243a1.242,1.242,0,0,1-1.243,1.243H73.7a1.242,1.242,0,0,1-1.243-1.243V301H66.243A1.242,1.242,0,0,0,65,302.243v21.132a1.242,1.242,0,0,0,1.243,1.243h32.32a1.242,1.242,0,0,0,1.243-1.243V302.243A1.242,1.242,0,0,0,98.563,301Z" transform="translate(0.243 3.16)"/><path class="b" d="M65,316v3.729a1.242,1.242,0,0,0,1.243,1.243h32.32a1.242,1.242,0,0,0,1.243-1.243V316Z" transform="translate(0.243 6.806)"/><g transform="translate(70.215 309.132)"><circle class="c" cx="1.243" cy="1.243" r="1.243" transform="translate(22.375)"/><circle class="c" cx="1.243" cy="1.243" r="1.243" transform="translate(14.917)"/><circle class="c" cx="1.243" cy="1.243" r="1.243" transform="translate(7.458)"/><circle class="c" cx="1.243" cy="1.243" r="1.243"/><circle class="c" cx="1.243" cy="1.243" r="1.243" transform="translate(18.646 3.729)"/><circle class="c" cx="1.243" cy="1.243" r="1.243" transform="translate(11.188 3.729)"/><circle class="c" cx="1.243" cy="1.243" r="1.243" transform="translate(3.729 3.729)"/><circle class="c" cx="1.243" cy="1.243" r="1.243" transform="translate(22.375 7.458)"/><circle class="c" cx="1.243" cy="1.243" r="1.243" transform="translate(14.917 7.458)"/><circle class="c" cx="1.243" cy="1.243" r="1.243" transform="translate(7.458 7.458)"/><circle class="c" cx="1.243" cy="1.243" r="1.243" transform="translate(0 7.458)"/></g><path class="d" d="M94.347,288H69.486A2.486,2.486,0,0,0,67,290.486V304.16h4.972V305.4a1.242,1.242,0,0,0,1.243,1.243h17.4a1.242,1.242,0,0,0,1.243-1.243V304.16h4.972V290.486A2.487,2.487,0,0,0,94.347,288Z" transform="translate(0.729)"/><g class="e" transform="translate(72.701 292.972)"><path d="M72.243,298.486h17.4a1.243,1.243,0,0,0,0-2.486h-17.4a1.243,1.243,0,0,0,0,2.486Z" transform="translate(-71 -291.028)"/><path d="M72.243,294.486H79.7a1.243,1.243,0,1,0,0-2.486H72.243a1.243,1.243,0,1,0,0,2.486Z" transform="translate(-71 -292)"/></g><path class="f" d="M71,302.243a1.242,1.242,0,0,0,1.243,1.243h17.4a1.242,1.242,0,0,0,1.243-1.243V301H71Z" transform="translate(1.701 3.16)"/><path class="g" d="M96.486,311.458a1.242,1.242,0,0,1-1.243,1.243h0A1.242,1.242,0,0,1,94,311.458v-6.215A1.242,1.242,0,0,1,95.243,304h0a1.242,1.242,0,0,1,1.243,1.243Z" transform="translate(7.292 3.889)"/><path class="h" d="M95.243,310.243A1.242,1.242,0,0,1,94,309v1.243a1.243,1.243,0,1,0,2.486,0V309A1.242,1.242,0,0,1,95.243,310.243Z" transform="translate(7.292 5.104)"/><rect class="a" width="1.243" height="3.729" transform="translate(100.049 309.132)"/><rect class="a" width="1.243" height="3.729" transform="translate(64 309.132)"/><g transform="translate(64 309.132)"><rect class="b" width="1.243" height="3.729" transform="translate(36.049)"/><rect class="b" width="1.243" height="3.729"/></g><g class="i" transform="translate(70.215 310.997)"><path d="M70.243,307.122a1.223,1.223,0,0,1-1.052-.622,1.206,1.206,0,0,0-.191.622,1.243,1.243,0,1,0,2.486,0,1.205,1.205,0,0,0-.191-.622A1.223,1.223,0,0,1,70.243,307.122Z" transform="translate(-69 -306.5)"/><path d="M76.243,307.122a1.223,1.223,0,0,1-1.053-.622,1.206,1.206,0,0,0-.191.622,1.243,1.243,0,1,0,2.486,0,1.205,1.205,0,0,0-.191-.622A1.223,1.223,0,0,1,76.243,307.122Z" transform="translate(-67.542 -306.5)"/><path d="M82.243,307.122a1.223,1.223,0,0,1-1.053-.622,1.206,1.206,0,0,0-.191.622,1.243,1.243,0,1,0,2.486,0,1.205,1.205,0,0,0-.191-.622A1.223,1.223,0,0,1,82.243,307.122Z" transform="translate(-66.083 -306.5)"/><path d="M88.243,308.365a1.242,1.242,0,0,0,1.243-1.243,1.205,1.205,0,0,0-.191-.622,1.2,1.2,0,0,1-2.105,0,1.206,1.206,0,0,0-.191.622A1.242,1.242,0,0,0,88.243,308.365Z" transform="translate(-64.625 -306.5)"/><path d="M73.243,310.122a1.223,1.223,0,0,1-1.053-.622,1.206,1.206,0,0,0-.191.622,1.243,1.243,0,1,0,2.486,0,1.205,1.205,0,0,0-.191-.622A1.223,1.223,0,0,1,73.243,310.122Z" transform="translate(-68.271 -305.771)"/><path d="M79.243,310.122a1.223,1.223,0,0,1-1.053-.622,1.206,1.206,0,0,0-.191.622,1.243,1.243,0,1,0,2.486,0,1.205,1.205,0,0,0-.191-.622A1.223,1.223,0,0,1,79.243,310.122Z" transform="translate(-66.812 -305.771)"/><path d="M85.243,310.122a1.223,1.223,0,0,1-1.053-.622,1.206,1.206,0,0,0-.191.622,1.243,1.243,0,1,0,2.486,0,1.205,1.205,0,0,0-.191-.622A1.223,1.223,0,0,1,85.243,310.122Z" transform="translate(-65.354 -305.771)"/><path d="M70.243,313.122a1.223,1.223,0,0,1-1.052-.622,1.206,1.206,0,0,0-.191.622,1.243,1.243,0,1,0,2.486,0,1.205,1.205,0,0,0-.191-.622A1.223,1.223,0,0,1,70.243,313.122Z" transform="translate(-69 -305.042)"/><path d="M76.243,313.122a1.223,1.223,0,0,1-1.053-.622,1.206,1.206,0,0,0-.191.622,1.243,1.243,0,1,0,2.486,0,1.205,1.205,0,0,0-.191-.622A1.223,1.223,0,0,1,76.243,313.122Z" transform="translate(-67.542 -305.042)"/><path d="M82.243,313.122a1.223,1.223,0,0,1-1.053-.622,1.206,1.206,0,0,0-.191.622,1.243,1.243,0,1,0,2.486,0,1.205,1.205,0,0,0-.191-.622A1.223,1.223,0,0,1,82.243,313.122Z" transform="translate(-66.083 -305.042)"/><path d="M88.243,313.122a1.223,1.223,0,0,1-1.053-.622,1.206,1.206,0,0,0-.191.622,1.243,1.243,0,1,0,2.486,0,1.205,1.205,0,0,0-.191-.622A1.223,1.223,0,0,1,88.243,313.122Z" transform="translate(-64.625 -305.042)"/></g></g></svg>